# xmcd
#
# Track frame offsets:
#  150
#  20445
#  35782
#  63575
#  94303
#  113891
#  146915
#  166776
#  184400
#  216492
#  258403
#  276357
#
# Disc length: 4138 seconds
#
# Revision: 0
# Processed by: cddbd v1.4PL0 Copyright (c) Steve Scherf et al.
# Submitted via: AltoMP3_Maker 3.0
#
DISCID=c010280c
DTITLE=Wade Inman Band - Live At Diamondback
DYEAR=1900
DGENRE=
TTITLE0=If I Don't Go To Heaven
TTITLE1=I Feel Good
TTITLE2=Not For Sale
TTITLE3=Dirty Rotten Stinkin Blues
TTITLE4=You Gotta Move
TTITLE5=Not Guilty
TTITLE6=Helpin Somebody
TTITLE7=I Still Like To Rock
TTITLE8=Trading My Sorrows
TTITLE9=He Restores My Soul
TTITLE10=Amazing Grace Medley
TTITLE11=The Thrill Is Gone
EXTD=
EXTT0=
EXTT1=
EXTT2=
EXTT3=
EXTT4=
EXTT5=
EXTT6=
EXTT7=
EXTT8=
EXTT9=
EXTT10=
EXTT11=
PLAYORDER=
